# xmcd
#
# Track frame offsets: 
#        150
#        12035
#        32375
#        50127
#        66880
#        84492
#        103972
#        123660
#        137405
#        151502
#
# Disc length: 2219 seconds
#
# Revision: 0
# Processed by: cddbd v1.5PL3 Copyright (c) Steve Scherf et al.
# Submitted via: ExactAudioCopy v0.95a3
#
DISCID=7808a90a
DTITLE=Glen Campbell - Christmas Gold
DYEAR=1900
DGENRE=Country
TTITLE0=Silent Night
TTITLE1=The Christmas Song
TTITLE2=The Little Drummer Boy
TTITLE3=O Holy Night
TTITLE4=Mark The Herald Angel
TTITLE5=Have Yourself A Merry Little Christmas
TTITLE6=Away In The Manger
TTITLE7=It Came Upon A Midnight Clear
TTITLE8=What'd I Say
TTITLE9=I'll Be Home For Christmas
EXTD=
EXTT0=
EXTT1=
EXTT2=
EXTT3=
EXTT4=
EXTT5=
EXTT6=
EXTT7=
EXTT8=
EXTT9=
PLAYORDER=
